<?xml version="1.0" standalone="no"?><!DOCTYPE svg PUBLIC "-//W3C//DTD SVG 1.1//EN" "http://www.w3.org/Graphics/SVG/1.1/DTD/svg11.dtd"><svg class="icon" width="200px" height="200.00px" viewBox="0 0 1024 1024" version="1.1" xmlns="http://www.w3.org/2000/svg"><path d="M987.742523 721.167754v-98.461539h-194.823877v-85.622153h-98.461538v85.622153h-191.070523v98.461539H551.778462v44.276184h-48.391877v98.461539h191.070523v93.495138h98.461538v-93.495138h194.823877v-98.461539H931.84v-44.276184h55.902523zM833.378462 765.447877h-183.138462V721.171692h183.138462v44.276185z" fill="#B0A7F7" /><path d="M158.964185 1007.324554c-1.662031 0-3.324062-0.082708-4.978216-0.252062-54.315323-5.517785-89.410954-42.413292-89.410954-93.987446V105.846154c0-42.149415 32.031508-86.941538 91.395939-86.941539l387.457969 1.150031c43.409723 0 78.848 33.988923 78.848 75.764185V376.123077c0 27.1872-22.043569 49.230769-49.230769 49.230769S523.815385 403.310277 523.815385 376.123077V118.457108l-360.778831-1.071262v791.465354l807.723323-1.130338h0.070892c27.159631 0 49.191385 21.996308 49.230769 49.159876 0.039385 27.1872-21.972677 49.262277-49.159876 49.301662l-811.866585 1.138215-0.070892 0.003939z" fill="#594BC8" /><path d="M765.766892 425.357785c-27.136 0-49.163815-21.9648-49.22683-49.116554l-0.417477-181.567016-180.1216-78.186338c-24.942277-10.826831-36.383508-39.821785-25.556677-64.760123 10.830769-24.942277 39.841477-36.375631 64.764061-25.556677l189.475446 82.242954c1.366646 0.594708 2.709662 1.248492 4.017231 1.965292 21.153477 11.567262 45.859446 37.462646 45.859446 72.373169l0.445046 193.260308c0.063015 27.1872-21.925415 49.281969-49.116553 49.344985h-0.122093z" fill="#594BC8" /><path d="M417.910154 299.0592H261.064862c-27.1872 0-49.230769-22.043569-49.23077-49.230769s22.043569-49.230769 49.23077-49.230769h156.845292c27.1872 0 49.230769 22.043569 49.230769 49.230769s-22.043569 49.230769-49.230769 49.230769zM417.910154 456.861538H261.064862c-27.1872 0-49.230769-22.043569-49.23077-49.230769S233.877662 358.4 261.064862 358.4h156.845292c27.1872 0 49.230769 22.043569 49.230769 49.230769s-22.043569 49.230769-49.230769 49.230769z" fill="#B0A7F7" /><path d="M503.386585 479.976369h484.352v98.461539h-484.352z" fill="#594BC8" /></svg>