<?xml version="1.0" standalone="no"?><!DOCTYPE svg PUBLIC "-//W3C//DTD SVG 1.1//EN" "http://www.w3.org/Graphics/SVG/1.1/DTD/svg11.dtd"><svg class="icon" width="200px" height="200.00px" viewBox="0 0 1024 1024" version="1.1" xmlns="http://www.w3.org/2000/svg"><path d="M512 512m-448 0a448 448 0 1 0 896 0 448 448 0 1 0-896 0Z" fill="#B2E8FF" /><path d="M653.952 209.92H395.648c-45.952 0-83.328 37.376-83.328 83.328v463.104c0 45.952 37.376 83.328 83.328 83.328h258.304c45.952 0 83.328-37.376 83.328-83.328V293.248c0-45.952-37.376-83.328-83.328-83.328z m-86.016 484.352c0 23.808-19.328 43.264-43.264 43.264s-43.264-19.328-43.264-43.264 19.328-43.264 43.264-43.264 43.264 19.456 43.264 43.264z m51.84-286.464c0 4.224-3.456 7.68-7.68 7.68H388.864c-4.224 0-7.68-3.456-7.68-7.68s3.456-7.68 7.68-7.68h223.104c4.352 0 7.808 3.456 7.808 7.68z m-82.432-62.336h-148.48c-4.224 0-7.68-3.456-7.68-7.68s3.456-7.68 7.68-7.68h148.48c4.224 0 7.68 3.456 7.68 7.68s-3.456 7.68-7.68 7.68z" fill="#1A6C91" opacity=".5" /><path d="M524.288 694.912m-31.744 0a31.744 31.744 0 1 0 63.488 0 31.744 31.744 0 1 0-63.488 0Z" fill="#1A6C91" opacity=".5" /><path d="M641.152 204.8H382.848c-41.728 0-75.648 33.92-75.648 75.648v463.104c0 41.728 33.92 75.648 75.648 75.648h258.304c41.728 0 75.648-33.92 75.648-75.648V280.448c0-41.728-33.92-75.648-75.648-75.648z m-280.448 120.192c0-8.448 6.912-15.36 15.36-15.36h148.48c8.448 0 15.36 6.912 15.36 15.36s-6.912 15.36-15.36 15.36h-148.48c-8.448 0-15.36-6.912-15.36-15.36zM512 732.416c-28.16 0-50.944-22.784-50.944-50.944s22.784-50.944 50.944-50.944c28.16 0 50.944 22.784 50.944 50.944S540.16 732.416 512 732.416z m87.296-322.048H376.064c-8.448 0-15.36-6.912-15.36-15.36s6.912-15.36 15.36-15.36h223.104c8.448 0 15.36 6.912 15.36 15.36s-6.784 15.36-15.232 15.36z" fill="#FFFFFF" /><path d="M641.152 826.88H382.848c-45.952 0-83.328-37.376-83.328-83.328V280.448c0-45.952 37.376-83.328 83.328-83.328h258.304c45.952 0 83.328 37.376 83.328 83.328v463.104c0 45.952-37.376 83.328-83.328 83.328zM382.848 212.48c-37.504 0-67.968 30.464-67.968 67.968v463.104c0 37.504 30.464 67.968 67.968 67.968h258.304c37.504 0 67.968-30.464 67.968-67.968V280.448c0-37.504-30.464-67.968-67.968-67.968H382.848zM512 740.096c-32.256 0-58.624-26.24-58.624-58.624 0-32.256 26.24-58.624 58.624-58.624s58.624 26.24 58.624 58.624c-0.128 32.384-26.368 58.624-58.624 58.624z m0-101.76c-23.808 0-43.264 19.328-43.264 43.264s19.328 43.264 43.264 43.264 43.264-19.328 43.264-43.264-19.456-43.264-43.264-43.264z m87.296-220.288H376.064c-12.672 0-23.04-10.368-23.04-23.04s10.368-23.04 23.04-23.04h223.104c12.672 0 23.04 10.368 23.04 23.04s-10.24 23.04-22.912 23.04z m-223.232-30.72c-4.224 0-7.68 3.456-7.68 7.68s3.456 7.68 7.68 7.68h223.104c4.224 0 7.68-3.456 7.68-7.68s-3.456-7.68-7.68-7.68H376.064z m148.48-39.296h-148.48c-12.672 0-23.04-10.368-23.04-23.04s10.368-23.04 23.04-23.04h148.48c12.672 0 23.04 10.368 23.04 23.04s-10.368 23.04-23.04 23.04z m-148.48-30.72c-4.224 0-7.68 3.456-7.68 7.68s3.456 7.68 7.68 7.68h148.48c4.224 0 7.68-3.456 7.68-7.68s-3.456-7.68-7.68-7.68h-148.48z" fill="#1A6C91" /><path d="M511.488 682.112m-24.064 0a24.064 24.064 0 1 0 48.128 0 24.064 24.064 0 1 0-48.128 0Z" fill="#FFFFFF" /><path d="M511.488 713.856c-17.408 0-31.744-14.208-31.744-31.744s14.208-31.744 31.744-31.744 31.744 14.208 31.744 31.744-14.336 31.744-31.744 31.744z m0-48c-8.96 0-16.384 7.296-16.384 16.384s7.296 16.384 16.384 16.384 16.384-7.296 16.384-16.384-7.424-16.384-16.384-16.384z" fill="#1A6C91" /></svg>